<svg width="111" height="111" viewBox="0 0 111 111" fill="none" xmlns="http://www.w3.org/2000/svg">
<g filter="url(#filter0_d_52_674)">
<g clip-path="url(#clip0_52_674)">
<rect x="20" y="20" width="71" height="71" rx="10" fill="white"/>
<path d="M36.1185 65.0662L43.1244 30.7337L49.5676 32.0485L42.5617 66.381L36.1185 65.0662Z" fill="black"/>
<path d="M59.0299 65.4289C57.5888 65.4555 56.2791 65.1506 55.1008 64.5143C53.9529 63.8461 53.0917 62.7965 52.5172 61.3656L41.8432 32.2784L49.3149 32.1404L58.0285 58.4906C58.0975 58.7087 58.1961 58.8635 58.3241 58.9552C58.4835 59.0462 58.6572 59.09 58.8451 59.0866C59.0331 59.0831 59.1884 59.0332 59.3109 58.9369C59.4648 58.8401 59.5699 58.6815 59.6262 58.4611L67.0779 31.8125L74.2207 31.6806L65.2976 61.0827C64.8374 62.5013 64.0383 63.5815 62.9001 64.3233C61.761 65.0337 60.471 65.4023 59.0299 65.4289Z" fill="black"/>
<rect width="1.69" height="34.2424" transform="translate(48.5212 32) rotate(10.9787)" fill="white"/>
<rect width="2.10182" height="9.79332" transform="translate(44.1492 65.0204) rotate(90.1198)" fill="white"/>
<rect width="2.10182" height="9.95737" transform="translate(50.9531 30.0846) rotate(88.3312)" fill="white"/>
<rect width="1.68911" height="35.5325" transform="translate(41.5221 30) rotate(10.9787)" fill="white"/>
<path d="M38.88 78.12C38.58 78.12 38.3067 78.04 38.06 77.88C37.82 77.72 37.6533 77.51 37.56 77.25L36.1 72.9H37.59L38.77 76.69C38.7833 76.7167 38.8 76.7367 38.82 76.75C38.84 76.7633 38.8633 76.77 38.89 76.77C38.9167 76.77 38.94 76.7633 38.96 76.75C38.9867 76.7367 39.0033 76.7167 39.01 76.69L40.2 72.9H41.66L40.2 77.24C40.1067 77.5 39.9367 77.7133 39.69 77.88C39.45 78.04 39.18 78.12 38.88 78.12Z" fill="#395B64"/>
<path d="M42.4117 78V72.9H43.7917V78H42.4117ZM43.1017 72.29C42.8684 72.29 42.6651 72.2067 42.4917 72.04C42.3251 71.8667 42.2417 71.6633 42.2417 71.43C42.2417 71.1967 42.3251 70.9967 42.4917 70.83C42.6651 70.6567 42.8684 70.57 43.1017 70.57C43.3351 70.57 43.5351 70.6567 43.7017 70.83C43.8751 70.9967 43.9617 71.1967 43.9617 71.43C43.9617 71.6633 43.8751 71.8667 43.7017 72.04C43.5351 72.2067 43.3351 72.29 43.1017 72.29ZM46.8477 78C46.3944 78 46.0377 77.87 45.7777 77.61C45.5244 77.35 45.3977 76.9967 45.3977 76.55V71.62H46.7677V76.51C46.7677 76.5967 46.7977 76.6733 46.8577 76.74C46.9244 76.8 47.0011 76.83 47.0877 76.83H48.1977V78H46.8477ZM44.5277 74.07V72.9H48.1977V74.07H44.5277ZM51.6223 78C51.0423 78 50.5357 77.89 50.1023 77.67C49.6757 77.4433 49.3423 77.1367 49.1023 76.75C48.869 76.3633 48.7523 75.93 48.7523 75.45C48.7523 74.91 48.8623 74.44 49.0823 74.04C49.3023 73.64 49.6023 73.33 49.9823 73.11C50.3623 72.89 50.7923 72.78 51.2723 72.78C51.8457 72.78 52.309 72.9 52.6623 73.14C53.0223 73.38 53.2857 73.7033 53.4523 74.11C53.619 74.51 53.7023 74.9567 53.7023 75.45C53.7023 75.5167 53.699 75.5967 53.6923 75.69C53.6857 75.7767 53.6757 75.8433 53.6623 75.89H50.2123C50.2657 76.0967 50.3557 76.27 50.4823 76.41C50.6157 76.55 50.779 76.6567 50.9723 76.73C51.1723 76.7967 51.3957 76.83 51.6423 76.83H53.0623V78H51.6223ZM50.2023 74.97H52.3323C52.319 74.8433 52.2957 74.7267 52.2623 74.62C52.229 74.5067 52.1823 74.4067 52.1223 74.32C52.0623 74.2333 51.9923 74.16 51.9123 74.1C51.8323 74.04 51.739 73.9933 51.6323 73.96C51.5257 73.9267 51.409 73.91 51.2823 73.91C51.1157 73.91 50.9657 73.94 50.8323 74C50.7057 74.06 50.599 74.14 50.5123 74.24C50.4257 74.34 50.3557 74.4533 50.3023 74.58C50.2557 74.7067 50.2223 74.8367 50.2023 74.97ZM54.6676 78V75.07C54.6676 74.65 54.7642 74.2667 54.9576 73.92C55.1576 73.5733 55.4442 73.2967 55.8176 73.09C56.1909 72.8833 56.6376 72.78 57.1576 72.78C57.6842 72.78 58.1309 72.8833 58.4976 73.09C58.8709 73.2967 59.1542 73.5733 59.3476 73.92C59.5476 74.2667 59.6476 74.65 59.6476 75.07V78H58.2776V75.07C58.2776 74.8633 58.2276 74.6767 58.1276 74.51C58.0276 74.3367 57.8909 74.2 57.7176 74.1C57.5509 74 57.3642 73.95 57.1576 73.95C56.9509 73.95 56.7609 74 56.5876 74.1C56.4209 74.2 56.2876 74.3367 56.1876 74.51C56.0876 74.6767 56.0376 74.8633 56.0376 75.07V78H54.6676ZM60.9469 78V72.9H62.3269V78H60.9469ZM61.6369 72.29C61.4035 72.29 61.2002 72.2067 61.0269 72.04C60.8602 71.8667 60.7769 71.6633 60.7769 71.43C60.7769 71.1967 60.8602 70.9967 61.0269 70.83C61.2002 70.6567 61.4035 70.57 61.6369 70.57C61.8702 70.57 62.0702 70.6567 62.2369 70.83C62.4102 70.9967 62.4969 71.1967 62.4969 71.43C62.4969 71.6633 62.4102 71.8667 62.2369 72.04C62.0702 72.2067 61.8702 72.29 61.6369 72.29ZM63.6129 78V74.97C63.6129 74.57 63.7096 74.2033 63.9029 73.87C64.0962 73.5367 64.3729 73.2733 64.7329 73.08C65.0996 72.88 65.5396 72.78 66.0529 72.78C66.2996 72.78 66.5262 72.81 66.7329 72.87C66.9462 72.9233 67.1429 73.0033 67.3229 73.11C67.5029 73.2167 67.6596 73.3433 67.7929 73.49H67.8029C67.9429 73.3433 68.1029 73.2167 68.2829 73.11C68.4629 73.0033 68.6596 72.9233 68.8729 72.87C69.0862 72.81 69.3162 72.78 69.5629 72.78C70.0762 72.78 70.5129 72.88 70.8729 73.08C71.2396 73.2733 71.5196 73.5367 71.7129 73.87C71.9062 74.2033 72.0029 74.57 72.0029 74.97V78H70.6329V74.97C70.6329 74.7833 70.5829 74.6133 70.4829 74.46C70.3896 74.3067 70.2629 74.1833 70.1029 74.09C69.9429 73.9967 69.7629 73.95 69.5629 73.95C69.3696 73.95 69.1896 73.9967 69.0229 74.09C68.8629 74.1833 68.7329 74.3067 68.6329 74.46C68.5396 74.6133 68.4929 74.7833 68.4929 74.97V78H67.1229V74.97C67.1229 74.7833 67.0729 74.6133 66.9729 74.46C66.8796 74.3067 66.7529 74.1833 66.5929 74.09C66.4329 73.9967 66.2529 73.95 66.0529 73.95C65.8596 73.95 65.6796 73.9967 65.5129 74.09C65.3529 74.1833 65.2229 74.3067 65.1229 74.46C65.0296 74.6133 64.9829 74.7833 64.9829 74.97V78H63.6129ZM75.8704 78C75.2904 78 74.7837 77.89 74.3504 77.67C73.9237 77.4433 73.5904 77.1367 73.3504 76.75C73.1171 76.3633 73.0004 75.93 73.0004 75.45C73.0004 74.91 73.1104 74.44 73.3304 74.04C73.5504 73.64 73.8504 73.33 74.2304 73.11C74.6104 72.89 75.0404 72.78 75.5204 72.78C76.0937 72.78 76.5571 72.9 76.9104 73.14C77.2704 73.38 77.5337 73.7033 77.7004 74.11C77.8671 74.51 77.9504 74.9567 77.9504 75.45C77.9504 75.5167 77.9471 75.5967 77.9404 75.69C77.9337 75.7767 77.9237 75.8433 77.9104 75.89H74.4604C74.5137 76.0967 74.6037 76.27 74.7304 76.41C74.8637 76.55 75.0271 76.6567 75.2204 76.73C75.4204 76.7967 75.6437 76.83 75.8904 76.83H77.3104V78H75.8704ZM74.4504 74.97H76.5804C76.5671 74.8433 76.5437 74.7267 76.5104 74.62C76.4771 74.5067 76.4304 74.4067 76.3704 74.32C76.3104 74.2333 76.2404 74.16 76.1604 74.1C76.0804 74.04 75.9871 73.9933 75.8804 73.96C75.7737 73.9267 75.6571 73.91 75.5304 73.91C75.3637 73.91 75.2137 73.94 75.0804 74C74.9537 74.06 74.8471 74.14 74.7604 74.24C74.6737 74.34 74.6037 74.4533 74.5504 74.58C74.5037 74.7067 74.4704 74.8367 74.4504 74.97Z" fill="black"/>
</g>
</g>
<defs>
<filter id="filter0_d_52_674" x="0" y="0" width="111" height="111" filterUnits="userSpaceOnUse" color-interpolation-filters="sRGB">
<feFlood flood-opacity="0" result="BackgroundImageFix"/>
<feColorMatrix in="SourceAlpha" type="matrix" values="0 0 0 0 0 0 0 0 0 0 0 0 0 0 0 0 0 0 127 0" result="hardAlpha"/>
<feOffset/>
<feGaussianBlur stdDeviation="10"/>
<feComposite in2="hardAlpha" operator="out"/>
<feColorMatrix type="matrix" values="0 0 0 0 0 0 0 0 0 0 0 0 0 0 0 0 0 0 0.15 0"/>
<feBlend mode="normal" in2="BackgroundImageFix" result="effect1_dropShadow_52_674"/>
<feBlend mode="normal" in="SourceGraphic" in2="effect1_dropShadow_52_674" result="shape"/>
</filter>
<clipPath id="clip0_52_674">
<rect x="20" y="20" width="71" height="71" rx="10" fill="white"/>
</clipPath>
</defs>
</svg>
