<svg width="202" height="37" viewBox="0 0 202 37" fill="none" xmlns="http://www.w3.org/2000/svg">
<path d="M13.824 36.576C12.384 36.576 11.072 36.192 9.888 35.424C8.736 34.656 7.936 33.648 7.488 32.4L0.48 11.52H7.632L13.296 29.712C13.36 29.84 13.44 29.936 13.536 30C13.632 30.064 13.744 30.096 13.872 30.096C14 30.096 14.112 30.064 14.208 30C14.336 29.936 14.416 29.84 14.448 29.712L20.16 11.52H27.168L20.16 32.352C19.712 33.6 18.896 34.624 17.712 35.424C16.56 36.192 15.264 36.576 13.824 36.576ZM30.7763 36V11.52H37.4003V36H30.7763ZM34.0883 8.592C32.9683 8.592 31.9923 8.192 31.1603 7.392C30.3603 6.56 29.9603 5.584 29.9603 4.464C29.9603 3.344 30.3603 2.384 31.1603 1.584C31.9923 0.751999 32.9683 0.335999 34.0883 0.335999C35.2083 0.335999 36.1683 0.751999 36.9683 1.584C37.8003 2.384 38.2163 3.344 38.2163 4.464C38.2163 5.584 37.8003 6.56 36.9683 7.392C36.1683 8.192 35.2083 8.592 34.0883 8.592ZM52.0691 36C49.8931 36 48.1811 35.376 46.9331 34.128C45.7171 32.88 45.1091 31.184 45.1091 29.04V5.376H51.6851V28.848C51.6851 29.264 51.8291 29.632 52.1171 29.952C52.4371 30.24 52.8051 30.384 53.2211 30.384H58.5491V36H52.0691ZM40.9331 17.136V11.52H58.5491V17.136H40.9331ZM74.9873 36C72.2033 36 69.7713 35.472 67.6913 34.416C65.6433 33.328 64.0433 31.856 62.8913 30C61.7713 28.144 61.2113 26.064 61.2113 23.76C61.2113 21.168 61.7393 18.912 62.7953 16.992C63.8513 15.072 65.2913 13.584 67.1153 12.528C68.9393 11.472 71.0033 10.944 73.3073 10.944C76.0593 10.944 78.2833 11.52 79.9793 12.672C81.7073 13.824 82.9713 15.376 83.7712 17.328C84.5713 19.248 84.9713 21.392 84.9713 23.76C84.9713 24.08 84.9553 24.464 84.9233 24.912C84.8913 25.328 84.8433 25.648 84.7793 25.872H68.2193C68.4753 26.864 68.9073 27.696 69.5153 28.368C70.1553 29.04 70.9393 29.552 71.8672 29.904C72.8273 30.224 73.8993 30.384 75.0833 30.384H81.8993V36H74.9873ZM68.1713 21.456H78.3953C78.3313 20.848 78.2193 20.288 78.0593 19.776C77.8993 19.232 77.6753 18.752 77.3873 18.336C77.0993 17.92 76.7633 17.568 76.3793 17.28C75.9953 16.992 75.5473 16.768 75.0353 16.608C74.5233 16.448 73.9633 16.368 73.3553 16.368C72.5553 16.368 71.8353 16.512 71.1953 16.8C70.5873 17.088 70.0753 17.472 69.6593 17.952C69.2433 18.432 68.9073 18.976 68.6513 19.584C68.4273 20.192 68.2673 20.816 68.1713 21.456ZM89.6044 36V21.936C89.6044 19.92 90.0684 18.08 90.9964 16.416C91.9564 14.752 93.3324 13.424 95.1244 12.432C96.9164 11.44 99.0604 10.944 101.556 10.944C104.084 10.944 106.228 11.44 107.988 12.432C109.78 13.424 111.14 14.752 112.068 16.416C113.028 18.08 113.508 19.92 113.508 21.936V36H106.932V21.936C106.932 20.944 106.692 20.048 106.212 19.248C105.732 18.416 105.076 17.76 104.244 17.28C103.444 16.8 102.548 16.56 101.556 16.56C100.564 16.56 99.6524 16.8 98.8204 17.28C98.0204 17.76 97.3804 18.416 96.9004 19.248C96.4204 20.048 96.1804 20.944 96.1804 21.936V36H89.6044ZM119.745 36V11.52H126.369V36H119.745ZM123.057 8.592C121.937 8.592 120.961 8.192 120.129 7.392C119.329 6.56 118.929 5.584 118.929 4.464C118.929 3.344 119.329 2.384 120.129 1.584C120.961 0.751999 121.937 0.335999 123.057 0.335999C124.177 0.335999 125.137 0.751999 125.937 1.584C126.769 2.384 127.185 3.344 127.185 4.464C127.185 5.584 126.769 6.56 125.937 7.392C125.137 8.192 124.177 8.592 123.057 8.592ZM132.542 36V21.456C132.542 19.536 133.006 17.776 133.934 16.176C134.862 14.576 136.19 13.312 137.918 12.384C139.678 11.424 141.79 10.944 144.254 10.944C145.438 10.944 146.526 11.088 147.518 11.376C148.542 11.632 149.486 12.016 150.35 12.528C151.214 13.04 151.966 13.648 152.606 14.352H152.654C153.326 13.648 154.094 13.04 154.958 12.528C155.822 12.016 156.766 11.632 157.79 11.376C158.814 11.088 159.918 10.944 161.102 10.944C163.566 10.944 165.662 11.424 167.39 12.384C169.15 13.312 170.494 14.576 171.422 16.176C172.35 17.776 172.814 19.536 172.814 21.456V36H166.238V21.456C166.238 20.56 165.998 19.744 165.518 19.008C165.07 18.272 164.462 17.68 163.694 17.232C162.926 16.784 162.062 16.56 161.102 16.56C160.174 16.56 159.31 16.784 158.51 17.232C157.742 17.68 157.118 18.272 156.638 19.008C156.19 19.744 155.966 20.56 155.966 21.456V36H149.39V21.456C149.39 20.56 149.15 19.744 148.67 19.008C148.222 18.272 147.614 17.68 146.846 17.232C146.078 16.784 145.214 16.56 144.254 16.56C143.326 16.56 142.462 16.784 141.662 17.232C140.894 17.68 140.27 18.272 139.79 19.008C139.342 19.744 139.118 20.56 139.118 21.456V36H132.542ZM191.378 36C188.594 36 186.162 35.472 184.082 34.416C182.034 33.328 180.434 31.856 179.282 30C178.162 28.144 177.602 26.064 177.602 23.76C177.602 21.168 178.13 18.912 179.186 16.992C180.242 15.072 181.682 13.584 183.506 12.528C185.33 11.472 187.394 10.944 189.698 10.944C192.45 10.944 194.674 11.52 196.37 12.672C198.098 13.824 199.362 15.376 200.162 17.328C200.962 19.248 201.362 21.392 201.362 23.76C201.362 24.08 201.346 24.464 201.314 24.912C201.282 25.328 201.234 25.648 201.17 25.872H184.61C184.866 26.864 185.298 27.696 185.906 28.368C186.546 29.04 187.33 29.552 188.258 29.904C189.218 30.224 190.29 30.384 191.474 30.384H198.29V36H191.378ZM184.562 21.456H194.786C194.722 20.848 194.61 20.288 194.45 19.776C194.29 19.232 194.066 18.752 193.778 18.336C193.49 17.92 193.154 17.568 192.77 17.28C192.386 16.992 191.938 16.768 191.426 16.608C190.914 16.448 190.354 16.368 189.746 16.368C188.946 16.368 188.226 16.512 187.586 16.8C186.978 17.088 186.466 17.472 186.05 17.952C185.634 18.432 185.298 18.976 185.042 19.584C184.818 20.192 184.658 20.816 184.562 21.456Z" fill="white"/>
</svg>
