<svg width="1101" height="942" viewBox="0 0 1101 942" fill="none" xmlns="http://www.w3.org/2000/svg">
<g opacity="0.1">
<path d="M1031.41 340.483L998.909 333.53L1032.57 247.558L1147.76 276.083L1119.78 350.104" stroke="#E5E7EB" stroke-width="15.0047" stroke-linecap="round" stroke-linejoin="round"/>
<path d="M778.545 204.512L784.346 130.737L693.109 119.756L663.535 200.106L738.253 213.736L744.495 165.384L713.35 164.54" stroke="#D1D5DB" stroke-width="15.0047" stroke-linecap="round" stroke-linejoin="round"/>
<path d="M956.655 62.992L1032.72 -20.2748L941.137 -22.2296L982.919 -64.7869" stroke="#E5E7EB" stroke-width="15.0047" stroke-linecap="round" stroke-linejoin="round"/>
<path d="M857.647 367.551C892.815 364.808 961.539 348.627 955.088 305.844C947.025 252.366 886.186 267.368 929.648 210.296" stroke="#F3F4F6" stroke-width="15.0047" stroke-linecap="round" stroke-linejoin="round"/>
<path d="M513.445 46.0516C525.85 51.3602 554.261 52.6484 568.659 15.333C583.455 15.6064 612.796 8.43319 611.79 -22.4474C627.777 -23.7512 655.969 -34.1956 640.844 -65.5424" stroke="#D1D5DB" stroke-width="15.0047" stroke-linecap="round" stroke-linejoin="round"/>
<path d="M751.612 866.545C764.017 871.854 792.428 873.142 806.826 835.827C821.622 836.1 850.963 828.927 849.957 798.046C865.944 796.742 894.136 786.298 879.011 754.951" stroke="#D1D5DB" stroke-width="15.0047" stroke-linecap="round" stroke-linejoin="round"/>
<path d="M230.357 820.569C232.917 839.326 249.386 867.463 294.784 829.956C300.059 845.925 322.494 870.071 370.037 838.903C375.373 860.306 399.749 892.707 454.563 851.083" stroke="#F3F4F6" stroke-width="15.0047" stroke-linecap="round" stroke-linejoin="round"/>
<path d="M696.898 66.8431L773.862 18.6961L714.226 0.692768L778.014 -90.4705" stroke="#F3F4F6" stroke-width="15.0047" stroke-linecap="round" stroke-linejoin="round"/>
<path d="M1138.49 713.795C1118.74 725.717 1074.1 740.306 1053.55 703.283C1027.85 657.004 968.602 730.565 928.635 688.617" stroke="#F3F4F6" stroke-width="15.0047" stroke-linecap="round" stroke-linejoin="round"/>
<path d="M418.984 794.057C397.111 789.623 366.37 765.897 418.392 706.464C470.414 647.031 444.121 619.097 424.471 612.559" stroke="#E5E7EB" stroke-width="15.0047" stroke-linecap="round" stroke-linejoin="round"/>
<path d="M871.703 292.012L803.33 258.985L889.068 166.421" stroke="#F3F4F6" stroke-width="15.0047" stroke-linecap="round" stroke-linejoin="round"/>
<path d="M978.208 403.534L1045.48 422.857L1081.62 323.145" stroke="#F3F4F6" stroke-width="15.0047" stroke-linecap="round" stroke-linejoin="round"/>
<path d="M982.927 487.284L1065.26 449.258" stroke="#F3F4F6" stroke-width="15.0047" stroke-linecap="round" stroke-linejoin="round"/>
<path d="M1106.33 455.43L1100.49 509.815L1169.79 516.248L1203.31 426.142" stroke="#D1D5DB" stroke-width="15.0047" stroke-linecap="round" stroke-linejoin="round"/>
<path d="M788.966 -27.7585L858.244 -6.21078L870.939 -58.1956" stroke="#F3F4F6" stroke-width="15.0047" stroke-linecap="round" stroke-linejoin="round"/>
<path d="M833.992 168.042L840.897 87.3228" stroke="#F3F4F6" stroke-width="15.0047" stroke-linecap="round" stroke-linejoin="round"/>
<path d="M731.207 765.392L716.898 738.405" stroke="#F3F4F6" stroke-width="15.0047" stroke-linecap="round" stroke-linejoin="round"/>
<path d="M1107.55 656.3L1178.12 623.705" stroke="#E5E7EB" stroke-width="15.0047" stroke-linecap="round" stroke-linejoin="round"/>
<path d="M961.105 660.037L946.344 580.604" stroke="#F3F4F6" stroke-width="15.0047" stroke-linecap="round" stroke-linejoin="round"/>
<path d="M935.558 520.621L984.049 561.938" stroke="#F3F4F6" stroke-width="15.0047" stroke-linecap="round" stroke-linejoin="round"/>
<path d="M459.732 544.753L478.96 600.16" stroke="#F3F4F6" stroke-width="15.0047" stroke-linecap="round" stroke-linejoin="round"/>
<path d="M645.065 563.828L674.256 481.537" stroke="#E5E7EB" stroke-width="15.0047" stroke-linecap="round" stroke-linejoin="round"/>
<path d="M740.561 485.463L897.968 453.139" stroke="#F3F4F6" stroke-width="15.0047" stroke-linecap="round" stroke-linejoin="round"/>
<path d="M880.167 499.859L951.011 476.506L928.683 394.429L859.145 407.165" stroke="#E5E7EB" stroke-width="15.0047" stroke-linecap="round" stroke-linejoin="round"/>
<path d="M677.13 408.955L675.442 437.747L807.224 401.422L808.827 309.976" stroke="#D1D5DB" stroke-width="15.0047" stroke-linecap="round" stroke-linejoin="round"/>
<path d="M614.449 386.773L575.304 296.958" stroke="#E5E7EB" stroke-width="15.0047" stroke-linecap="round" stroke-linejoin="round"/>
<path d="M547.074 235.713L638.348 231.997" stroke="#F3F4F6" stroke-width="15.0047" stroke-linecap="round" stroke-linejoin="round"/>
<path d="M478.676 418.236L461.064 385.022" stroke="#F3F4F6" stroke-width="15.0047" stroke-linecap="round" stroke-linejoin="round"/>
<path d="M628.107 437.965L525.518 444.324L529.916 391.575" stroke="#F3F4F6" stroke-width="15.0047" stroke-linecap="round" stroke-linejoin="round"/>
<path d="M457.828 143.216L486.058 88.1813" stroke="#F3F4F6" stroke-width="15.0047" stroke-linecap="round" stroke-linejoin="round"/>
<path d="M624.363 128.242L625.286 60.9469" stroke="#E5E7EB" stroke-width="15.0047" stroke-linecap="round" stroke-linejoin="round"/>
<path d="M434.613 443.488L369.477 452.899L352.999 400.748L406.408 390.293L387.795 315.223" stroke="#E5E7EB" stroke-width="15.0047" stroke-linecap="round" stroke-linejoin="round"/>
<path d="M276.551 349.02L337.595 345.698L336.663 305.426" stroke="#D1D5DB" stroke-width="15.0047" stroke-linecap="round" stroke-linejoin="round"/>
<path d="M405.495 246.648L313.844 260.553" stroke="#F3F4F6" stroke-width="15.0047" stroke-linecap="round" stroke-linejoin="round"/>
<path d="M670.352 648.442L664.169 603.353L514.815 653.78L534.866 561.247" stroke="#F3F4F6" stroke-width="15.0047" stroke-linecap="round" stroke-linejoin="round"/>
<path d="M552.48 701.679C564.495 716.588 577.425 751.922 533.02 773.982L584.165 830.473L652.877 798.736" stroke="#F3F4F6" stroke-width="15.0047" stroke-linecap="round" stroke-linejoin="round"/>
<path d="M935.064 887.331L1012.03 839.184L952.391 821.181L1016.18 730.017" stroke="#F3F4F6" stroke-width="15.0047" stroke-linecap="round" stroke-linejoin="round"/>
<path d="M386.444 654.972L300.332 701.853L300.568 644.889" stroke="#D1D5DB" stroke-width="15.0047" stroke-linecap="round" stroke-linejoin="round"/>
<path d="M371.956 517.514L384.877 557.588L353.324 569.69" stroke="#F3F4F6" stroke-width="15.0047" stroke-linecap="round" stroke-linejoin="round"/>
<path d="M450.194 198.832C432.448 198.306 396.329 184.882 393.821 135.388" stroke="#E5E7EB" stroke-width="15.0047" stroke-linecap="round" stroke-linejoin="round"/>
<path d="M592.987 182.401C587.15 166.791 566.013 134.581 528.155 130.617" stroke="#F3F4F6" stroke-width="15.0047" stroke-linecap="round" stroke-linejoin="round"/>
<path d="M519.178 906.438C520.698 880.311 516.516 822.167 487.629 798.6" stroke="#E5E7EB" stroke-width="15.0047" stroke-linecap="round" stroke-linejoin="round"/>
<path d="M281.011 85.9464C282.531 59.8201 278.349 1.67587 249.463 -21.8911" stroke="#E5E7EB" stroke-width="15.0047" stroke-linecap="round" stroke-linejoin="round"/>
<path d="M427.774 516.254C463.955 475.816 560.365 463.164 592.555 536.644" stroke="#F3F4F6" stroke-width="15.0047" stroke-linecap="round" stroke-linejoin="round"/>
<path d="M777.388 762.717C783.177 781.571 786.373 820.396 752.848 824.858" stroke="#D1D5DB" stroke-width="15.0047" stroke-linecap="round" stroke-linejoin="round"/>
<path d="M539.221 -57.7752C545.01 -38.9207 548.206 -0.096217 514.682 4.36596" stroke="#D1D5DB" stroke-width="15.0047" stroke-linecap="round" stroke-linejoin="round"/>
<path d="M1136.32 222.63C1154.72 207.103 1181.81 162.37 1143.02 107.649" stroke="#F3F4F6" stroke-width="15.0047" stroke-linecap="round" stroke-linejoin="round"/>
<path d="M1102 161.817C1068.57 146.246 1019.54 100.473 1090.85 41.952" stroke="#F3F4F6" stroke-width="15.0047" stroke-linecap="round" stroke-linejoin="round"/>
<path d="M889.926 91.6894C887.91 70.8905 870.168 33.8546 815.328 52.1027" stroke="#F3F4F6" stroke-width="15.0047" stroke-linecap="round" stroke-linejoin="round"/>
<path d="M513.856 359.402C510.095 358.916 419.953 278.185 525.752 191.635" stroke="#F3F4F6" stroke-width="15.0047" stroke-linecap="round" stroke-linejoin="round"/>
<path d="M602.026 690.351C673.965 728.408 834.922 658.694 750.516 556.189" stroke="#E5E7EB" stroke-width="15.0047" stroke-linecap="round" stroke-linejoin="round"/>
<path d="M793.313 712.479C822.27 707.503 882.384 682.515 891.183 622.372" stroke="#D1D5DB" stroke-width="15.0047" stroke-linecap="round" stroke-linejoin="round"/>
<path d="M1049.05 625.062C1074.46 607.182 1110.62 562.882 1052.02 528.724" stroke="#F3F4F6" stroke-width="15.0047" stroke-linecap="round" stroke-linejoin="round"/>
<path d="M705.43 566.354C703.984 551.516 709.154 521.347 741.399 519.375" stroke="#F3F4F6" stroke-width="15.0047" stroke-linecap="round" stroke-linejoin="round"/>
<path d="M165.982 307.569C158.369 290.304 155.041 253.507 202.638 244.444C235.186 238.247 251.109 270.942 245.597 289.856" stroke="#F3F4F6" stroke-width="15.0047" stroke-linecap="round" stroke-linejoin="round"/>
<path d="M1127.81 28.3776C1120.19 11.112 1116.87 -25.685 1164.46 -34.7477C1197.01 -40.9451 1212.93 -8.24937 1207.42 10.664" stroke="#D1D5DB" stroke-width="15.0047" stroke-linecap="round" stroke-linejoin="round"/>
<path d="M830.57 540.12C851.044 530.663 873.13 537.549 881.05 552.486C888.97 567.423 881.439 587.988 860.965 597.444C840.491 606.901 818.405 600.015 810.485 585.079C802.565 570.142 810.096 549.577 830.57 540.12Z" stroke="#F3F4F6" stroke-width="15.0047"/>
<path d="M670.291 272.539C695.21 261.03 722.5 269.272 732.396 287.935C742.291 306.598 732.76 331.847 707.841 343.357C682.922 354.867 655.632 346.624 645.736 327.961C635.841 309.299 645.373 284.049 670.291 272.539Z" stroke="#F3F4F6" stroke-width="15.0047"/>
<path d="M272.41 136.902C297.671 125.235 325.362 133.581 335.409 152.531C345.457 171.481 335.771 197.091 310.51 208.758C285.25 220.426 257.559 212.079 247.512 193.13C237.464 174.18 247.15 148.57 272.41 136.902Z" stroke="#D1D5DB" stroke-width="15.0047"/>
<path d="M962.113 108.115C984.98 97.5527 1009.87 105.169 1018.85 122.112C1027.84 139.055 1019.23 162.143 996.36 172.705C973.493 183.267 948.605 175.651 939.621 158.708C930.637 141.765 939.245 118.677 962.113 108.115Z" stroke="#D1D5DB" stroke-width="15.0047"/>
<path d="M262.125 503.364C282.77 493.829 305.056 500.767 313.052 515.847C321.047 530.927 313.44 551.672 292.795 561.208C272.15 570.744 249.864 563.806 241.868 548.725C233.872 533.645 241.479 512.9 262.125 503.364Z" stroke="#D1D5DB" stroke-width="15.0047"/>
<path d="M393.277 27.0731C413.922 17.5374 436.208 24.4753 444.204 39.5554C452.2 54.6355 444.592 75.3808 423.947 84.9166C403.302 94.4523 381.016 87.5143 373.02 72.4342C365.024 57.3542 372.632 36.6089 393.277 27.0731Z" stroke="#F3F4F6" stroke-width="15.0047"/>
<path d="M631.443 847.564C652.089 838.029 674.375 844.967 682.37 860.047C690.366 875.127 682.759 895.872 662.114 905.408C641.468 914.944 619.183 908.006 611.187 892.925C603.191 877.845 610.798 857.1 631.443 847.564Z" stroke="#F3F4F6" stroke-width="15.0047"/>
<ellipse cx="292.704" cy="428.904" rx="14.3738" ry="12.2616" transform="rotate(-16.1866 292.704 428.904)" fill="#D1D5DB"/>
<ellipse cx="198.456" cy="137.48" rx="14.3738" ry="12.2616" transform="rotate(-16.1866 198.456 137.48)" fill="#E5E7EB"/>
<ellipse cx="1026.79" cy="206.758" rx="14.3738" ry="12.2616" transform="rotate(-16.1866 1026.79 206.758)" fill="#F3F4F6"/>
<ellipse cx="475.248" cy="731.766" rx="14.3738" ry="12.2616" transform="rotate(-16.1866 475.248 731.766)" fill="#D1D5DB"/>
<ellipse cx="641.609" cy="752.669" rx="14.3738" ry="12.2616" transform="rotate(-16.1866 641.609 752.669)" fill="#F3F4F6"/>
<ellipse cx="750.285" cy="365.273" rx="14.3738" ry="12.2616" transform="rotate(-16.1866 750.285 365.273)" fill="#D1D5DB"/>
<ellipse cx="527.598" cy="273.406" rx="14.3738" ry="12.2616" transform="rotate(-16.1866 527.598 273.406)" fill="#D1D5DB"/>
<ellipse cx="656.409" cy="15.2568" rx="14.3738" ry="12.2616" transform="rotate(-16.1866 656.409 15.2568)" fill="#E5E7EB"/>
<ellipse cx="899.115" cy="23.0598" rx="14.3738" ry="12.2616" transform="rotate(-16.1866 899.115 23.0598)" fill="#F3F4F6"/>
<ellipse cx="819.174" cy="655.822" rx="14.3738" ry="12.2616" transform="rotate(-16.1866 819.174 655.822)" fill="#F3F4F6"/>
</g>
</svg>
